/* XPM */
static char *dd0ead4995004ebfe831970eb30a1a20hma1hqjEa4wpe05g[] = {
/* columns rows colors chars-per-pixel */
"64 64 6 1 ",
"  c #58232F",
". c #5B7138",
"X c #763372",
"o c #B9384D",
"O c #92AE37",
"+ c #F0BA5C",
/* pixels */
"++++++++++++++++++++++++++++++++++++++++++++++++++++++++++++++++",
"++++++++++++++++++++++++++++++++++++++++++++++++++++++++++++++++",
"++++++++++++++++++++++++++++++++++++++++++++++++++++++++++++++++",
"++++++++++++++++++++++++++++++++++++++++++++++++++++++++++++++++",
"+++++++++++   ++++++++++++++++++++++++++++++++++++++++++++++++++",
"+++++++++++   ++++++++++++++++++++++++++++++++++++++++++++++++++",
"+++++++++++   ++++++++++++++++++++++++++++++++++++++++++++++++++",
"+++++++++++                                       ++++++++++++++",
"++++++++++++++                                    ++++++++++++++",
"++++++++++++++                                    ++++++++++++++",
"++++++++++++++                                    ++++++++++++++",
"+++++++++++   OOOOOOOOOOOOOOOOOOOOOOOOOOOOOOOO....   +++++++++++",
"+++++++++++   OOOOOOOOOOOOOOOOOOOOOOOOOOOOOOOO....   +++++++++++",
"+++++++++++   OOOOOOOOOOOOOOOOOOOOOOOOOOOOOOOO....   +++++++++++",
"+++++++++++   OOOOOOOOOOOOOOOOOOOOOOOOOOOOOOOO....   +++++++++++",
"+++++++    ...OOOOOOOOOOOOO   OOOOOOOOOOOOOOOOOOOOOOO       ++++",
"+++++++    ...OOOOOOOOOOOOO   OOOOOOOOOOOOOOOOOOOOOOO       ++++",
"+++++++    ...OOOOOOOOOOOOO   OOOOOOOOOOOOOOOOOOOOOOO       ++++",
"+++++++    ...OOOOOOOOOOOOO   OOOOOOOOOOOOOOOOOOOOOOO       ++++",
"+++++++    OOOOOOOOOOOO....OOOOOOOOOOOOOOOOOOOOOOOOOO    +++++++",
"+++++++    OOOOOOOOOOOO....OOOOOOOOOOOOOOOOOOOOOOOOOO    +++++++",
"+++++++    OOOOOOOOOOOO....OOOOOOOOOOOOOOOOOOOOOOOOOO    +++++++",
"+++++++    OOOOOOOOOOOO....OOOOOOOOOOOOOOOOOOOOOOOOOO    +++++++",
"++++   ....OOOOOOOOOOOOOOOOOOOOOOOOOOOOOOOOOOOOOOOOOO....   ++++",
"++++   ....OOOOOOOOOOOOOOOOOOOOOOOOOOOOOOOOOOOOOOOOOO....   ++++",
"++++   ....OOOOOOOOOOOOOOOOOOOOOOOOOOOOOOOOOOOOOOOOOO....   ++++",
"       ....OOOOOOOOOOOOOOOOOOOOOOOOOOOOOOOOOOOOOOOOOOOOOO   ++++",
"       ....OOOOOOOOOOOOOOOOOOOOOOOOOOOOOOOOOOOOOOOOOOOOOO   ++++",
"       ....OOOOOOOOOOOOOOOOOOOOOOOOOOOOOOOOOOOOOOOOOOOOOO   ++++",
"       ....OOOOOOOOOOOOOOOOOOOOOOOOOOOOOOOOOOOOOOOOOOOOOO   ++++",
"++++   ....OOOOOOOOOOOOOOOOOOOOOOOOO   OOOOOOOOOOOOOOOOOO   ++++",
"++++   ....OOOOOOOOOOOOOOOOOOOOOOOOO   OOOOOOOOOOOOOOOOOO   ++++",
"++++   ....OOOOOOOOOOOOOOOOOOOOOOOOO   OOOOOOOOOOOOOOOOOO   ++++",
"++++   ....OOOOOOOOOOOOOOOOOOOOOOOOO   OOOOOOOOOOOOOOOOOO   ++++",
"    .......OOOOOOOOOOOOOOOOOOOOO....OOOOOOOOOOOOOOOOOOOOO...    ",
"    .......OOOOOOOOOOOOOOOOOOOOO....OOOOOOOOOOOOOOOOOOOOO...    ",
"    .......OOOOOOOOOOOOOOOOOOOOO....OOOOOOOOOOOOOOOOOOOOO...    ",
"    .......OOOOOOOOOOOOOOOOOOOOO....OOOOOOOOOOOOOOOOOOOOO...    ",
"    .......OOOOOOOOOO    OOOOOOOOOOOOOOOOOOOOOOOOOOOOOOOOOOO    ",
"    .......OOOOOOOOOO    OOOOOOOOOOOOOOOOOOOOOOOOOOOOOOOOOOO    ",
"    .......OOOOOOOOOO    OOOOOOOOOOOOOOOOOOOOOOOOOOOOOOOOOOO    ",
"    ..........OOOO...OOOOOOOOOOOOOOOOOOOOOOOOOOOOOOOO    OOO    ",
"    ..........OOOO...OOOOOOOOOOOOOOOOOOOOOOOOOOOOOOOO    OOO    ",
"    ..........OOOO...OOOOOOOOOOOOOOOOOOOOOOOOOOOOOOOO    OOO    ",
"    ..........OOOO...OOOOOOOOOOOOOOOOOOOOOOOOOOOOOOOO    OOO    ",
"    ..........OOOOOOOOOOOOOOOOOOOOOOOOOOOOOOOOOOOO...OOOOOOO    ",
"    ..........OOOOOOOOOOOOOOOOOOOOOOOOOOOOOOOOOOOO...OOOOOOO    ",
"    ..........OOOOOOOOOOOOOOOOOOOOOOOOOOOOOOOOOOOO...OOOOOOO    ",
"    ..........OOOOOOOOOOOOOOOOOOOOOOOOOOOOOOOOOOOO...OOOOOOO    ",
"    .......   ....OOOOOOOOOOOOOOOOOOOOOOOOOOOOOOOOOOOOOOO...    ",
"    .......   ....OOOOOOOOOOOOOOOOOOOOOOOOOOOOOOOOOOOOOOO...    ",
"    .......   ....OOOOOOOOOOOOOOOOOOOOOOOOOOOOOOOOOOOOOOO...    ",
"oooo.......   ....OOOOOOOOOOOOOOOOOOOOOOOOOOOOOOOOOOOOOOO...oooo",
"oooo   ..................OOOOOOOOOOOOOOOOOOOOOOOOOOOO....   oooo",
"oooo   ..................OOOOOOOOOOOOOOOOOOOOOOOOOOOO....   oooo",
"oooo   ..................OOOOOOOOOOOOOOOOOOOOOOOOOOOO....   oooo",
"    ooo       ....................................       ooo++++",
"    ooo       ....................................       ooo++++",
"    ooo       ....................................       ooo++++",
"    ooo       ....................................       ooo++++",
"++++ooooooXXXX                                    XXXXoooooo++++",
"++++ooooooXXXX                                    XXXXoooooo++++",
"++++ooooooXXXX                                    XXXXoooooo++++",
"++++ooooooXXXX                                    XXXXoooooo++++"
};
