/* XPM */
static char *_e997b60a5e048a19fc37fb018f6a342czDwCcoOGxQcs9KI[] = {
/* columns rows colors chars-per-pixel */
"64 64 6 1 ",
"  c #58232F",
". c #763372",
"X c #7E747E",
"o c #B9384D",
"O c #F0BA5C",
"+ c #E9DDE8",
/* pixels */
"OOOOOOOOOOOOOOOOO             OOOO         OOOOOOOOOOOOOOOOOOOOO",
"OOOOOOOOOOOOOOOOO             OOOO         OOOOOOOOOOOOOOOOOOOOO",
"OOOOOOOOOOOOOOOOO             OOOO         OOOOOOOOOOOOOOOOOOOOO",
"OOOOOOOOOOOOOOOOO             OOOO         OOOOOOOOOOOOOOOOOOOOO",
"OOOOOOOOOOOOOOOOO             OOOO         OOOOOOOOOOOOOOOOOOOOO",
"OOOOOOOOOOOOO    ooooOOOOOoooo    ooooOOOOO    OOOOOOOOOOOOOOOOO",
"OOOOOOOOOOOOO    ooooOOOOOoooo    ooooOOOOO    OOOOOOOOOOOOOOOOO",
"OOOOOOOOOOOOO    ooooOOOOOoooo    ooooOOOOO    OOOOOOOOOOOOOOOOO",
"OOOOOOOOOOOOO    ooooOOOOOoooo    ooooOOOOO    OOOOOOOOOOOOOOOOO",
"OOOO             oooooooooOOOOOOOOOOOOOOOOO            OOOOOOOOO",
"OOOO             oooooooooOOOOOOOOOOOOOOOOO            OOOOOOOOO",
"OOOO             oooooooooOOOOOOOOOOOOOOOOO            OOOOOOOOO",
"OOOO             oooooooooOOOOOOOOOOOOOOOOO            OOOOOOOOO",
"OOOO             oooooooooOOOOOOOOOOOOOOOOO            OOOOOOOOO",
"    ooooo....    oooooooooooooooooooooooooo    ooooOOOO     OOOO",
"    ooooo....    oooooooooooooooooooooooooo    ooooOOOO     OOOO",
"    ooooo....    oooooooooooooooooooooooooo    ooooOOOO     OOOO",
"    ooooo....    oooooooooooooooooooooooooo    ooooOOOO     OOOO",
"         oooooooo                          ooooOOOOOOOO     OOOO",
"         oooooooo                          ooooOOOOOOOO     OOOO",
"         oooooooo                          ooooOOOOOOOO     OOOO",
"         oooooooo                          ooooOOOOOOOO     OOOO",
"         oooooooo                          ooooOOOOOOOO     OOOO",
"OOOO         ooooOOOOOOOOOOOOOOOOOOOOOOOOOOOOOOoooo    OOOOOOOOO",
"OOOO         ooooOOOOOOOOOOOOOOOOOOOOOOOOOOOOOOoooo    OOOOOOOOO",
"OOOO         ooooOOOOOOOOOOOOOOOOOOOOOOOOOOOOOOoooo    OOOOOOOOO",
"OOOO         ooooOOOOOOOOOOOOOOOOOOOOOOOOOOOOOOoooo    OOOOOOOOO",
"OOOOOOOOO                                          OOOOOOOOOOOOO",
"OOOOOOOOO                                          OOOOOOOOOOOOO",
"OOOOOOOOO                                          OOOOOOOOOOOOO",
"OOOOOOOOO                                          OOOOOOOOOOOOO",
"OOOOOOOOO                                          OOOOOOOOOOOOO",
"OOOOOOOOO            ooooo    oooo    ooooo        OOOOOOOOOOOOO",
"OOOOOOOOO            ooooo    oooo    ooooo        OOOOOOOOOOOOO",
"OOOOOOOOO            ooooo    oooo    ooooo        OOOOOOOOOOOOO",
"OOOOOOOOO            ooooo    oooo    ooooo        OOOOOOOOOOOOO",
"OOOOOOOOO            ooooo    oooo    ooooo        OOOOOOOOOOOOO",
"OOOOOOOOO            OOOOO    OOOO    OOOOO        OOOOOOOOOOOOO",
"OOOOOOOOO            OOOOO    OOOO    OOOOO        OOOOOOOOOOOOO",
"OOOOOOOOO            OOOOO    OOOO    OOOOO        OOOOOOOOOOOOO",
"OOOOOOOOO            OOOOO    OOOO    OOOOO        OOOOOOOOOOOOO",
"OOOOOOOOOOOOO    ooooOOOOOOOOOOOOOOOOOOOOOO    oooo    OOOOOOOOO",
"OOOOOOOOOOOOO    ooooOOOOOOOOOOOOOOOOOOOOOO    oooo    OOOOOOOOO",
"OOOOOOOOOOOOO    ooooOOOOOOOOOOOOOOOOOOOOOO    oooo    OOOOOOOOO",
"OOOOOOOOOOOOO    ooooOOOOOOOOOOOOOOOOOOOOOO    oooo    OOOOOOOOO",
"OOOOOOOOOOOOO    ooooOOOOOOOOOOOOOOOOOOOOOO    oooo    OOOOOOOOO",
"OOOOOOOOO    oooo....                 .....oooooooooooo     OOOO",
"OOOOOOOOO    oooo....                 .....oooooooooooo     OOOO",
"OOOOOOOOO    oooo....                 .....oooooooooooo     OOOO",
"OOOOOOOOO    oooo....                 .....oooooooooooo     OOOO",
"OOOOOOOOO    ooooOOOO+++++++++++++XXXX     oooo    OOOOOOOOO    ",
"OOOOOOOOO    ooooOOOO+++++++++++++XXXX     oooo    OOOOOOOOO    ",
"OOOOOOOOO    ooooOOOO+++++++++++++XXXX     oooo    OOOOOOOOO    ",
"OOOOOOOOO    ooooOOOO+++++++++++++XXXX     oooo    OOOOOOOOO    ",
"OOOOOOOOO    ooooOOOO+++++++++++++XXXX     oooo    OOOOOOOOO    ",
"OOOOOOOOOOOOO    ooooOOOOOoooo        ooooo        ooooOOOOO    ",
"OOOOOOOOOOOOO    ooooOOOOOoooo        ooooo        ooooOOOOO    ",
"OOOOOOOOOOOOO    ooooOOOOOoooo        ooooo        ooooOOOOO    ",
"OOOOOOOOOOOOO    ooooOOOOOoooo        ooooo        ooooOOOOO    ",
"OOOOOOOOOOOOO    ....XXXXX        .........    OOOO         OOOO",
"OOOOOOOOOOOOO    ....XXXXX        .........    OOOO         OOOO",
"OOOOOOOOOOOOO    ....XXXXX        .........    OOOO         OOOO",
"OOOOOOOOOOOOO    ....XXXXX        .........    OOOO         OOOO",
"OOOOOOOOOOOOO    ....XXXXX        .........    OOOO         OOOO"
};
