/* XPM */
static char *bfc6f3668e424bcacd78a05397c95deevS5yuH1PWc77Q3CG[] = {
/* columns rows colors chars-per-pixel */
"64 64 4 1 ",
"  c #58232F",
". c #763372",
"X c #B9384D",
"o c #F0BA5C",
/* pixels */
"ooooooooooooooooo         oooo             ooooooooooooooooooooo",
"ooooooooooooooooo         oooo             ooooooooooooooooooooo",
"ooooooooooooooooo         oooo             ooooooooooooooooooooo",
"ooooooooooooooooo         oooo             ooooooooooooooooooooo",
"ooooooooooooooooo         oooo             ooooooooooooooooooooo",
"ooooooooooooo    ooooXXXXX    XXXXooooXXXXX    ooooooooooooooooo",
"ooooooooooooo    ooooXXXXX    XXXXooooXXXXX    ooooooooooooooooo",
"ooooooooooooo    ooooXXXXX    XXXXooooXXXXX    ooooooooooooooooo",
"ooooooooooooo    ooooXXXXX    XXXXooooXXXXX    ooooooooooooooooo",
"oooo     oooo    XXXXoooooooooooooXXXXXXXXX    oooo    ooooooooo",
"oooo     oooo    XXXXoooooooooooooXXXXXXXXX    oooo    ooooooooo",
"oooo     oooo    XXXXoooooooooooooXXXXXXXXX    oooo    ooooooooo",
"oooo     oooo    XXXXoooooooooooooXXXXXXXXX    oooo    ooooooooo",
"oooo     oooo    XXXXoooooooooooooXXXXXXXXX    oooo    ooooooooo",
"    XXXXX        XXXXXXXXXXXXXXXXXXXXXXXXXX        XXXX     oooo",
"    XXXXX        XXXXXXXXXXXXXXXXXXXXXXXXXX        XXXX     oooo",
"    XXXXX        XXXXXXXXXXXXXXXXXXXXXXXXXX        XXXX     oooo",
"    XXXXX        XXXXXXXXXXXXXXXXXXXXXXXXXX        XXXX     oooo",
"    XXXXXooooXXXX                          XXXXooooXXXX     oooo",
"    XXXXXooooXXXX                          XXXXooooXXXX     oooo",
"    XXXXXooooXXXX                          XXXXooooXXXX     oooo",
"    XXXXXooooXXXX                          XXXXooooXXXX     oooo",
"    XXXXXooooXXXX                          XXXXooooXXXX     oooo",
"oooo     XXXXooooooooooooooooooooooooooooooooooXXXX    ooooooooo",
"oooo     XXXXooooooooooooooooooooooooooooooooooXXXX    ooooooooo",
"oooo     XXXXooooooooooooooooooooooooooooooooooXXXX    ooooooooo",
"oooo     XXXXooooooooooooooooooooooooooooooooooXXXX    ooooooooo",
"ooooooooo                                          ooooooooooooo",
"ooooooooo                                          ooooooooooooo",
"ooooooooo                                          ooooooooooooo",
"ooooooooo                                          ooooooooooooo",
"ooooooooo                                          ooooooooooooo",
"ooooooooo                                          ooooooooooooo",
"ooooooooo                                          ooooooooooooo",
"ooooooooo                                          ooooooooooooo",
"ooooooooo                                          ooooooooooooo",
"ooooooooo                                          ooooooooooooo",
"oooo                                                   ooooooooo",
"oooo                                                   ooooooooo",
"oooo                                                   ooooooooo",
"oooo                                                   ooooooooo",
"    oooooXXXX                                  XXXXoooo     oooo",
"    oooooXXXX                                  XXXXoooo     oooo",
"    oooooXXXX                                  XXXXoooo     oooo",
"    oooooXXXX                                  XXXXoooo     oooo",
"    oooooXXXX                                  XXXXoooo     oooo",
"    XXXXXXXXXXXXX    XXXXX        XXXX     XXXXXXXXXXXX     oooo",
"    XXXXXXXXXXXXX    XXXXX        XXXX     XXXXXXXXXXXX     oooo",
"    XXXXXXXXXXXXX    XXXXX        XXXX     XXXXXXXXXXXX     oooo",
"    XXXXXXXXXXXXX    XXXXX        XXXX     XXXXXXXXXXXX     oooo",
"oooo         XXXXXXXXXXXXXXXXX    XXXXXXXXXXXXX    ooooooooo    ",
"oooo         XXXXXXXXXXXXXXXXX    XXXXXXXXXXXXX    ooooooooo    ",
"oooo         XXXXXXXXXXXXXXXXX    XXXXXXXXXXXXX    ooooooooo    ",
"oooo         XXXXXXXXXXXXXXXXX    XXXXXXXXXXXXX    ooooooooo    ",
"oooo         XXXXXXXXXXXXXXXXX    XXXXXXXXXXXXX    ooooooooo    ",
"ooooooooo        XXXXXXXXXXXXXXXXXXXXXXXXXX        XXXXooooo    ",
"ooooooooo        XXXXXXXXXXXXXXXXXXXXXXXXXX        XXXXooooo    ",
"ooooooooo        XXXXXXXXXXXXXXXXXXXXXXXXXX        XXXXooooo    ",
"ooooooooo        XXXXXXXXXXXXXXXXXXXXXXXXXX        XXXXooooo    ",
"ooooooooooooo    .........        .........    oooo         oooo",
"ooooooooooooo    .........        .........    oooo         oooo",
"ooooooooooooo    .........        .........    oooo         oooo",
"ooooooooooooo    .........        .........    oooo         oooo",
"ooooooooooooo    .........        .........    oooo         oooo"
};
