/* XPM */
static char *_d4bdb4dbcc24e8be2e38040d40e22d1nGWSU9XZSpls5VNp[] = {
/* columns rows colors chars-per-pixel */
"64 64 6 1 ",
"  c #58232F",
". c #763372",
"X c #7E747E",
"o c #B9384D",
"O c #F0BA5C",
"+ c #E9DDE8",
/* pixels */
"OOOOOOOOOOOOOOOOOOOOO             OOOO         OOOOOOOOOOOOOOOOO",
"OOOOOOOOOOOOOOOOOOOOO             OOOO         OOOOOOOOOOOOOOOOO",
"OOOOOOOOOOOOOOOOOOOOO             OOOO         OOOOOOOOOOOOOOOOO",
"OOOOOOOOOOOOOOOOOOOOO             OOOO         OOOOOOOOOOOOOOOOO",
"OOOOOOOOOOOOOOOOO    oooooOOOOoooo    oooooOOOO    OOOOOOOOOOOOO",
"OOOOOOOOOOOOOOOOO    oooooOOOOoooo    oooooOOOO    OOOOOOOOOOOOO",
"OOOOOOOOOOOOOOOOO    oooooOOOOoooo    oooooOOOO    OOOOOOOOOOOOO",
"OOOOOOOOOOOOOOOOO    oooooOOOOoooo    oooooOOOO    OOOOOOOOOOOOO",
"OOOOOOOOOOOOOOOOO    oooooOOOOoooo    oooooOOOO    OOOOOOOOOOOOO",
"OOOOOOOOO    OOOO    oooooooooOOOOOOOOOOOOOOOOO    OOOO     OOOO",
"OOOOOOOOO    OOOO    oooooooooOOOOOOOOOOOOOOOOO    OOOO     OOOO",
"OOOOOOOOO    OOOO    oooooooooOOOOOOOOOOOOOOOOO    OOOO     OOOO",
"OOOOOOOOO    OOOO    oooooooooOOOOOOOOOOOOOOOOO    OOOO     OOOO",
"OOOO     oooo        oooooooooooooooooooooooooo        ooooo    ",
"OOOO     oooo        oooooooooooooooooooooooooo        ooooo    ",
"OOOO     oooo        oooooooooooooooooooooooooo        ooooo    ",
"OOOO     oooo        oooooooooooooooooooooooooo        ooooo    ",
"OOOO     ooooOOOOoooo                          ooooOOOOooooo    ",
"OOOO     ooooOOOOoooo                          ooooOOOOooooo    ",
"OOOO     ooooOOOOoooo                          ooooOOOOooooo    ",
"OOOO     ooooOOOOoooo                          ooooOOOOooooo    ",
"OOOOOOOOO    ooooOOOOOOOOOOOOOOOOOOOOOOOOOOOOOOOOOOoooo     OOOO",
"OOOOOOOOO    ooooOOOOOOOOOOOOOOOOOOOOOOOOOOOOOOOOOOoooo     OOOO",
"OOOOOOOOO    ooooOOOOOOOOOOOOOOOOOOOOOOOOOOOOOOOOOOoooo     OOOO",
"OOOOOOOOO    ooooOOOOOOOOOOOOOOOOOOOOOOOOOOOOOOOOOOoooo     OOOO",
"OOOOOOOOO    ooooOOOOOOOOOOOOOOOOOOOOOOOOOOOOOOOOOOoooo     OOOO",
"OOOOOOOOOOOOO                                          OOOOOOOOO",
"OOOOOOOOOOOOO                                          OOOOOOOOO",
"OOOOOOOOOOOOO                                          OOOOOOOOO",
"OOOOOOOOOOOOO                                          OOOOOOOOO",
"OOOOOOOOOOOOO        ooooo    oooooooo     oooo        OOOOOOOOO",
"OOOOOOOOOOOOO        ooooo    oooooooo     oooo        OOOOOOOOO",
"OOOOOOOOOOOOO        ooooo    oooooooo     oooo        OOOOOOOOO",
"OOOOOOOOOOOOO        ooooo    oooooooo     oooo        OOOOOOOOO",
"OOOOOOOOO            OOOOO    OOOOOOOO     OOOO        OOOOOOOOO",
"OOOOOOOOO            OOOOO    OOOOOOOO     OOOO        OOOOOOOOO",
"OOOOOOOOO            OOOOO    OOOOOOOO     OOOO        OOOOOOOOO",
"OOOOOOOOO            OOOOO    OOOOOOOO     OOOO        OOOOOOOOO",
"OOOO     oooooooo    oooooOOOOOOOOOOOOOOOOOoooo    OOOOOOOOOOOOO",
"OOOO     oooooooo    oooooOOOOOOOOOOOOOOOOOoooo    OOOOOOOOOOOOO",
"OOOO     oooooooo    oooooOOOOOOOOOOOOOOOOOoooo    OOOOOOOOOOOOO",
"OOOO     oooooooo    oooooOOOOOOOOOOOOOOOOOoooo    OOOOOOOOOOOOO",
"OOOO     oooooooo    oooooOOOOOOOOOOOOOOOOOoooo    OOOOOOOOOOOOO",
"OOOO     oooooooooooo.....    oooooooo     ....oooo    OOOOOOOOO",
"OOOO     oooooooooooo.....    oooooooo     ....oooo    OOOOOOOOO",
"OOOO     oooooooooooo.....    oooooooo     ....oooo    OOOOOOOOO",
"OOOO     oooooooooooo.....    oooooooo     ....oooo    OOOOOOOOO",
"    OOOOOOOOO    ooooooooo........XXXX+++++OOOOoooo    OOOOOOOOO",
"    OOOOOOOOO    ooooooooo........XXXX+++++OOOOoooo    OOOOOOOOO",
"    OOOOOOOOO    ooooooooo........XXXX+++++OOOOoooo    OOOOOOOOO",
"    OOOOOOOOO    ooooooooo........XXXX+++++OOOOoooo    OOOOOOOOO",
"    OOOOOoooo        ooooooooooooo    +++++        OOOOOOOOOOOOO",
"    OOOOOoooo        ooooooooooooo    +++++        OOOOOOOOOOOOO",
"    OOOOOoooo        ooooooooooooo    +++++        OOOOOOOOOOOOO",
"    OOOOOoooo        ooooooooooooo    +++++        OOOOOOOOOOOOO",
"OOOO         OOOOOOOOOOOOOOOOOOOOO    XXXXX    OOOOOOOOOOOOOOOOO",
"OOOO         OOOOOOOOOOOOOOOOOOOOO    XXXXX    OOOOOOOOOOOOOOOOO",
"OOOO         OOOOOOOOOOOOOOOOOOOOO    XXXXX    OOOOOOOOOOOOOOOOO",
"OOOO         OOOOOOOOOOOOOOOOOOOOO    XXXXX    OOOOOOOOOOOOOOOOO",
"OOOO         OOOOOOOOOOOOOOOOOOOOO    XXXXX    OOOOOOOOOOOOOOOOO",
"OOOOOOOOOOOOOOOOOOOOOOOOOOOOOOOOOOOOOO     OOOOOOOOOOOOOOOOOOOOO",
"OOOOOOOOOOOOOOOOOOOOOOOOOOOOOOOOOOOOOO     OOOOOOOOOOOOOOOOOOOOO",
"OOOOOOOOOOOOOOOOOOOOOOOOOOOOOOOOOOOOOO     OOOOOOOOOOOOOOOOOOOOO",
"OOOOOOOOOOOOOOOOOOOOOOOOOOOOOOOOOOOOOO     OOOOOOOOOOOOOOOOOOOOO"
};
