/* XPM */
static char *_8647d2af5474319af21362a5ccfc361PP92V0pSxrcRoORL[] = {
/* columns rows colors chars-per-pixel */
"64 64 6 1 ",
"  c #58232F",
". c #763372",
"X c #7E747E",
"o c #B9384D",
"O c #F0BA5C",
"+ c #E9DDE8",
/* pixels */
"OOOOOOOOOOOOOOOOOOOOOO             OOOO         OOOOOOOOOOOOOOOO",
"OOOOOOOOOOOOOOOOOOOOOO             OOOO         OOOOOOOOOOOOOOOO",
"OOOOOOOOOOOOOOOOOOOOOO             OOOO         OOOOOOOOOOOOOOOO",
"OOOOOOOOOOOOOOOOOOOOOO             OOOO         OOOOOOOOOOOOOOOO",
"OOOOOOOOOOOOOOOOOOOOOO             OOOO         OOOOOOOOOOOOOOOO",
"OOOOOOOOOOOOOOOOO     ooooOOOOooooo    ooooOOOOO    OOOOOOOOOOOO",
"OOOOOOOOOOOOOOOOO     ooooOOOOooooo    ooooOOOOO    OOOOOOOOOOOO",
"OOOOOOOOOOOOOOOOO     ooooOOOOooooo    ooooOOOOO    OOOOOOOOOOOO",
"OOOOOOOOOOOOOOOOO     ooooOOOOooooo    ooooOOOOO    OOOOOOOOOOOO",
"OOOOOOOOO             ooooooooOOOOOOOOOOOOOOOOOO             OOO",
"OOOOOOOOO             ooooooooOOOOOOOOOOOOOOOOOO             OOO",
"OOOOOOOOO             ooooooooOOOOOOOOOOOOOOOOOO             OOO",
"OOOOOOOOO             ooooooooOOOOOOOOOOOOOOOOOO             OOO",
"OOOOOOOOO             ooooooooOOOOOOOOOOOOOOOOOO             OOO",
"OOOO     OOOOoooo     oooooooooooooooooooooooooo    ....ooooo   ",
"OOOO     OOOOoooo     oooooooooooooooooooooooooo    ....ooooo   ",
"OOOO     OOOOoooo     oooooooooooooooooooooooooo    ....ooooo   ",
"OOOO     OOOOoooo     oooooooooooooooooooooooooo    ....ooooo   ",
"OOOO     OOOOOOOOooooo                          oooooooo        ",
"OOOO     OOOOOOOOooooo                          oooooooo        ",
"OOOO     OOOOOOOOooooo                          oooooooo        ",
"OOOO     OOOOOOOOooooo                          oooooooo        ",
"OOOO     OOOOOOOOooooo                          oooooooo        ",
"OOOOOOOOO    ooooOOOOOOOOOOOOOOOOOOOOOOOOOOOOOOOoooo         OOO",
"OOOOOOOOO    ooooOOOOOOOOOOOOOOOOOOOOOOOOOOOOOOOoooo         OOO",
"OOOOOOOOO    ooooOOOOOOOOOOOOOOOOOOOOOOOOOOOOOOOoooo         OOO",
"OOOOOOOOO    ooooOOOOOOOOOOOOOOOOOOOOOOOOOOOOOOOoooo         OOO",
"OOOOOOOOOOOOO                                           OOOOOOOO",
"OOOOOOOOOOOOO                                           OOOOOOOO",
"OOOOOOOOOOOOO                                           OOOOOOOO",
"OOOOOOOOOOOOO                                           OOOOOOOO",
"OOOOOOOOOOOOO                                           OOOOOOOO",
"OOOOOOOOOOOOO         oooo    ooooo    oooo             OOOOOOOO",
"OOOOOOOOOOOOO         oooo    ooooo    oooo             OOOOOOOO",
"OOOOOOOOOOOOO         oooo    ooooo    oooo             OOOOOOOO",
"OOOOOOOOOOOOO         oooo    ooooo    oooo             OOOOOOOO",
"OOOOOOOOOOOOO         oooo    ooooo    oooo             OOOOOOOO",
"OOOOOOOOOOOOO         OOOO    OOOOO    OOOO             OOOOOOOO",
"OOOOOOOOOOOOO         OOOO    OOOOO    OOOO             OOOOOOOO",
"OOOOOOOOOOOOO         OOOO    OOOOO    OOOO             OOOOOOOO",
"OOOOOOOOOOOOO         OOOO    OOOOO    OOOO             OOOOOOOO",
"OOOOOOOOO    oooo     OOOOOOOOOOOOOOOOOOOOOooooo    OOOOOOOOOOOO",
"OOOOOOOOO    oooo     OOOOOOOOOOOOOOOOOOOOOooooo    OOOOOOOOOOOO",
"OOOOOOOOO    oooo     OOOOOOOOOOOOOOOOOOOOOooooo    OOOOOOOOOOOO",
"OOOOOOOOO    oooo     OOOOOOOOOOOOOOOOOOOOOooooo    OOOOOOOOOOOO",
"OOOOOOOOO    oooo     OOOOOOOOOOOOOOOOOOOOOooooo    OOOOOOOOOOOO",
"OOOO     ooooooooooooo                     .....oooo    OOOOOOOO",
"OOOO     ooooooooooooo                     .....oooo    OOOOOOOO",
"OOOO     ooooooooooooo                     .....oooo    OOOOOOOO",
"OOOO     ooooooooooooo                     .....oooo    OOOOOOOO",
"    OOOOOOOOO    ooooo    XXXX+++++++++++++OOOOOoooo    OOOOOOOO",
"    OOOOOOOOO    ooooo    XXXX+++++++++++++OOOOOoooo    OOOOOOOO",
"    OOOOOOOOO    ooooo    XXXX+++++++++++++OOOOOoooo    OOOOOOOO",
"    OOOOOOOOO    ooooo    XXXX+++++++++++++OOOOOoooo    OOOOOOOO",
"    OOOOOOOOO    ooooo    XXXX+++++++++++++OOOOOoooo    OOOOOOOO",
"    OOOOOoooo         oooo             OOOOooooo    OOOOOOOOOOOO",
"    OOOOOoooo         oooo             OOOOooooo    OOOOOOOOOOOO",
"    OOOOOoooo         oooo             OOOOooooo    OOOOOOOOOOOO",
"    OOOOOoooo         oooo             OOOOooooo    OOOOOOOOOOOO",
"OOOO         OOOO     ........         XXXX.....    OOOOOOOOOOOO",
"OOOO         OOOO     ........         XXXX.....    OOOOOOOOOOOO",
"OOOO         OOOO     ........         XXXX.....    OOOOOOOOOOOO",
"OOOO         OOOO     ........         XXXX.....    OOOOOOOOOOOO",
"OOOO         OOOO     ........         XXXX.....    OOOOOOOOOOOO"
};
