/* XPM */
static char *_bab74e5022a4070ee21226bfe7a187eqNuGclctjp3N1tQM[] = {
/* columns rows colors chars-per-pixel */
"64 64 4 1 ",
"  c #58232F",
". c #763372",
"X c #B9384D",
"o c #F0BA5C",
/* pixels */
"oooooooooooooooooooooooooooooooooooooooooooooooooooooooooooooooo",
"oooooooooooooooooooooooooooooooooooooooooooooooooooooooooooooooo",
"oooooooooooooooooooooooooooooooooooooooooooooooooooooooooooooooo",
"oooooooooooooooooooooooooooooooooooooooooooooooooooooooooooooooo",
"oooooooooooooooooooooooooooooooooooooooooooooooooooooooooooooooo",
"oooooooooooooooooooooooooooooooooooooooooooooooooooooooooooooooo",
"oooooooooooooooooooooooooooooooooooooooooooooooooooooooooooooooo",
"oooooooooooooooooooooooooooooooooooooooooooooooooooooooooooooooo",
"oooooooooooooo        ....oooooooooooo............oooooooooooooo",
"oooooooooooooo        ....oooooooooooo............oooooooooooooo",
"oooooooooooooo        ....oooooooooooo............oooooooooooooo",
"oooooooooooooo        ....oooooooooooo............oooooooooooooo",
"oooooooooo    ....XXXXXXXX....oooo    XXXXXXXXXXXX....oooooooooo",
"oooooooooo    ....XXXXXXXX....oooo    XXXXXXXXXXXX....oooooooooo",
"oooooooooo    ....XXXXXXXX....oooo    XXXXXXXXXXXX....oooooooooo",
"oooooooooo    ....XXXXXXXX....oooo    XXXXXXXXXXXX....oooooooooo",
"oooooo    ....XXXXXXXXooooXXXX    XXXXXXXXooooXXXXXXXX....oooooo",
"oooooo    ....XXXXXXXXooooXXXX    XXXXXXXXooooXXXXXXXX....oooooo",
"oooooo    ....XXXXXXXXooooXXXX    XXXXXXXXooooXXXXXXXX....oooooo",
"oooooo    ....XXXXXXXXooooXXXX    XXXXXXXXooooXXXXXXXX....oooooo",
"oooooo    ....XXXXXXXXXXXXoooo....XXXXXXXXXXXXooooXXXX....oooooo",
"oooooo    ....XXXXXXXXXXXXoooo....XXXXXXXXXXXXooooXXXX....oooooo",
"oooooo    ....XXXXXXXXXXXXoooo....XXXXXXXXXXXXooooXXXX....oooooo",
"oooooo    ....XXXXXXXXXXXXoooo....XXXXXXXXXXXXooooXXXX....oooooo",
"oooooo    ....XXXXXXXXXXXXXXXXXXXXXXXXXXXXXXXXXXXXXXXX....oooooo",
"oooooo    ....XXXXXXXXXXXXXXXXXXXXXXXXXXXXXXXXXXXXXXXX....oooooo",
"oooooo    ....XXXXXXXXXXXXXXXXXXXXXXXXXXXXXXXXXXXXXXXX....oooooo",
"oooooo    ....XXXXXXXXXXXXXXXXXXXXXXXXXXXXXXXXXXXXXXXX....oooooo",
"oooooo    ....XXXXXXXXXXXXXXXXXXXXXXXXXXXXXXXXXXXXXXXX....oooooo",
"oooooo    ....XXXXXXXXXXXXXXXXXXXXXXXXXXXXXXXXXXXXXXXX....oooooo",
"oooooo    ....XXXXXXXXXXXXXXXXXXXXXXXXXXXXXXXXXXXXXXXX....oooooo",
"oooooo    ....XXXXXXXXXXXXXXXXXXXXXXXXXXXXXXXXXXXXXXXX....oooooo",
"oooooooooo    ....XXXXXXXXXXXXXXXXXXXXXXXXXXXXXXXX....oooooooooo",
"oooooooooo    ....XXXXXXXXXXXXXXXXXXXXXXXXXXXXXXXX....oooooooooo",
"oooooooooo    ....XXXXXXXXXXXXXXXXXXXXXXXXXXXXXXXX....oooooooooo",
"oooooooooo    ....XXXXXXXXXXXXXXXXXXXXXXXXXXXXXXXX....oooooooooo",
"oooooooooooooo    ....XXXXXXXXXXXXXXXXXXXXXXXX....oooooooooooooo",
"oooooooooooooo    ....XXXXXXXXXXXXXXXXXXXXXXXX....oooooooooooooo",
"oooooooooooooo    ....XXXXXXXXXXXXXXXXXXXXXXXX....oooooooooooooo",
"oooooooooooooo    ....XXXXXXXXXXXXXXXXXXXXXXXX....oooooooooooooo",
"oooooooooooooooooo    ....XXXXXXXXXXXXXXXX....oooooooooooooooooo",
"oooooooooooooooooo    ....XXXXXXXXXXXXXXXX....oooooooooooooooooo",
"oooooooooooooooooo    ....XXXXXXXXXXXXXXXX....oooooooooooooooooo",
"oooooooooooooooooo    ....XXXXXXXXXXXXXXXX....oooooooooooooooooo",
"oooooooooooooooooooooo    ....XXXXXXXX....oooooooooooooooooooooo",
"oooooooooooooooooooooo    ....XXXXXXXX....oooooooooooooooooooooo",
"oooooooooooooooooooooo    ....XXXXXXXX....oooooooooooooooooooooo",
"oooooooooooooooooooooo    ....XXXXXXXX....oooooooooooooooooooooo",
"oooooooooooooooooooooooooo    ....    oooooooooooooooooooooooooo",
"oooooooooooooooooooooooooo    ....    oooooooooooooooooooooooooo",
"oooooooooooooooooooooooooo    ....    oooooooooooooooooooooooooo",
"oooooooooooooooooooooooooo    ....    oooooooooooooooooooooooooo",
"oooooooooooooooooooooooooooooo    oooooooooooooooooooooooooooooo",
"oooooooooooooooooooooooooooooo    oooooooooooooooooooooooooooooo",
"oooooooooooooooooooooooooooooo    oooooooooooooooooooooooooooooo",
"oooooooooooooooooooooooooooooo    oooooooooooooooooooooooooooooo",
"oooooooooooooooooooooooooooooooooooooooooooooooooooooooooooooooo",
"oooooooooooooooooooooooooooooooooooooooooooooooooooooooooooooooo",
"oooooooooooooooooooooooooooooooooooooooooooooooooooooooooooooooo",
"oooooooooooooooooooooooooooooooooooooooooooooooooooooooooooooooo",
"oooooooooooooooooooooooooooooooooooooooooooooooooooooooooooooooo",
"oooooooooooooooooooooooooooooooooooooooooooooooooooooooooooooooo",
"oooooooooooooooooooooooooooooooooooooooooooooooooooooooooooooooo",
"oooooooooooooooooooooooooooooooooooooooooooooooooooooooooooooooo"
};
