/* XPM */
static char *acc7b71566fd45929a97dd9c8ba362e9PnFVMBajZYNy7KUZ[] = {
/* columns rows colors chars-per-pixel */
"64 64 7 1 ",
"  c #58232F",
". c #5B7138",
"X c #763372",
"o c #7E747E",
"O c #B9384D",
"+ c #92AE37",
"@ c #F0BA5C",
/* pixels */
"@@@@@@@@@@@@            @@@@@@@@@@@@@@@@@@@@            @@@@@@@@",
"@@@@@@@@@@@@            @@@@@@@@@@@@@@@@@@@@            @@@@@@@@",
"@@@@@@@@@@@@            @@@@@@@@@@@@@@@@@@@@            @@@@@@@@",
"@@@@@@@@@@@@            @@@@@@@@@@@@@@@@@@@@            @@@@@@@@",
"@@@@@@@@    OOOO    @@@@@@@@@@@@@@@@@@@@@@@@@@@@    @@@@    @@@@",
"@@@@@@@@    OOOO    @@@@@@@@@@@@@@@@@@@@@@@@@@@@    @@@@    @@@@",
"@@@@@@@@    OOOO    @@@@@@@@@@@@@@@@@@@@@@@@@@@@    @@@@    @@@@",
"@@@@@@@@    OOOO    @@@@@@@@@@@@@@@@@@@@@@@@@@@@    @@@@    @@@@",
"@@@@@@@@    OOOO@@@@                            OOOO@@@@    @@@@",
"@@@@@@@@    OOOO@@@@                            OOOO@@@@    @@@@",
"@@@@@@@@    OOOO@@@@                            OOOO@@@@    @@@@",
"@@@@@@@@    OOOO@@@@                            OOOO@@@@    @@@@",
"@@@@@@@@    OOOO@@@@@@@@    ....++++++++....OOOO@@@@@@@@    @@@@",
"@@@@@@@@    OOOO@@@@@@@@    ....++++++++....OOOO@@@@@@@@    @@@@",
"@@@@@@@@    OOOO@@@@@@@@    ....++++++++....OOOO@@@@@@@@    @@@@",
"@@@@@@@@    OOOO@@@@@@@@    ....++++++++....OOOO@@@@@@@@    @@@@",
"@@@@@@@@@@@@    OOOO    ....++++++++++++++++....OOOO    @@@@@@@@",
"@@@@@@@@@@@@    OOOO    ....++++++++++++++++....OOOO    @@@@@@@@",
"@@@@@@@@@@@@    OOOO    ....++++++++++++++++....OOOO    @@@@@@@@",
"@@@@@@@@@@@@    OOOO    ....++++++++++++++++....OOOO    @@@@@@@@",
"@@@@@@@@            ........++++++++++++++++....            @@@@",
"@@@@@@@@            ........++++++++++++++++....            @@@@",
"@@@@@@@@            ........++++++++++++++++....            @@@@",
"@@@@@@@@            ........++++++++++++++++....            @@@@",
"@@@@    XXXX            ........++++++++++++        XXXXoooo    ",
"@@@@    XXXX            ........++++++++++++        XXXXoooo    ",
"@@@@    XXXX            ........++++++++++++        XXXXoooo    ",
"@@@@    XXXX            ........++++++++++++        XXXXoooo    ",
"    XXXXoooo    ....            ....            ....    oooo    ",
"    XXXXoooo    ....            ....            ....    oooo    ",
"    XXXXoooo    ....            ....            ....    oooo    ",
"    XXXXoooo    ....            ....            ....    oooo    ",
"    XXXXXXXX    ....++++OOOO............OOOO++++....    XXXX    ",
"    XXXXXXXX    ....++++OOOO............OOOO++++....    XXXX    ",
"    XXXXXXXX    ....++++OOOO............OOOO++++....    XXXX    ",
"    XXXXXXXX    ....++++OOOO............OOOO++++....    XXXX    ",
"    ........        ....++++++++++++++++++++....    XXXXXXXX    ",
"    ........        ....++++++++++++++++++++....    XXXXXXXX    ",
"    ........        ....++++++++++++++++++++....    XXXXXXXX    ",
"    ........        ....++++++++++++++++++++....    XXXXXXXX    ",
"    ++++++++++++        ....@@@@....@@@@....        ........    ",
"    ++++++++++++        ....@@@@....@@@@....        ........    ",
"    ++++++++++++        ....@@@@....@@@@....        ........    ",
"    ++++++++++++        ....@@@@....@@@@....        ........    ",
"    ++++....++++    XXXXXXXX++++++++++++XXXX    ++++++++++++    ",
"    ++++....++++    XXXXXXXX++++++++++++XXXX    ++++++++++++    ",
"    ++++....++++    XXXXXXXX++++++++++++XXXX    ++++++++++++    ",
"    ++++....++++    XXXXXXXX++++++++++++XXXX    ++++++++++++    ",
"@@@@             OOOOOOOOOOOO    OOOOOOOOOOOO   ++++....++++    ",
"@@@@             OOOOOOOOOOOO    OOOOOOOOOOOO   ++++....++++    ",
"@@@@             OOOOOOOOOOOO    OOOOOOOOOOOO   ++++....++++    ",
"@@@@             OOOOOOOOOOOO    OOOOOOOOOOOO   ++++....++++    ",
"@@@@@@@@@@@@     ............    ............               @@@@",
"@@@@@@@@@@@@     ............    ............               @@@@",
"@@@@@@@@@@@@     ............    ............               @@@@",
"@@@@@@@@@@@@     ............    ............               @@@@",
"@@@@@@@@@@@@     ++++....++++    ++++....++++   @@@@@@@@@@@@@@@@",
"@@@@@@@@@@@@     ++++....++++    ++++....++++   @@@@@@@@@@@@@@@@",
"@@@@@@@@@@@@     ++++....++++    ++++....++++   @@@@@@@@@@@@@@@@",
"@@@@@@@@@@@@     ++++....++++    ++++....++++   @@@@@@@@@@@@@@@@",
"@@@@@@@@@@@@                                    @@@@@@@@@@@@@@@@",
"@@@@@@@@@@@@                                    @@@@@@@@@@@@@@@@",
"@@@@@@@@@@@@                                    @@@@@@@@@@@@@@@@",
"@@@@@@@@@@@@                                    @@@@@@@@@@@@@@@@"
};
