/* XPM */
static char *_d81664e529843e7f9dd82cdff0dc520rRaQrL8kQg2thAi6[] = {
/* columns rows colors chars-per-pixel */
"64 64 7 1 ",
"  c #58232F",
". c #5B7138",
"X c #763372",
"o c #7E747E",
"O c #B9384D",
"+ c #92AE37",
"@ c #F0BA5C",
/* pixels */
"@@@@@@@@@@@@            @@@@@@@@@@@@@@@@@@@@            @@@@@@@@",
"@@@@@@@@@@@@            @@@@@@@@@@@@@@@@@@@@            @@@@@@@@",
"@@@@@@@@@@@@            @@@@@@@@@@@@@@@@@@@@            @@@@@@@@",
"@@@@@@@@@@@@            @@@@@@@@@@@@@@@@@@@@            @@@@@@@@",
"@@@@@@@@    OOOO    @@@@@@@@@@@@@@@@@@@@@@@@@@@@    @@@@    @@@@",
"@@@@@@@@    OOOO    @@@@@@@@@@@@@@@@@@@@@@@@@@@@    @@@@    @@@@",
"@@@@@@@@    OOOO    @@@@@@@@@@@@@@@@@@@@@@@@@@@@    @@@@    @@@@",
"@@@@@@@@    OOOO    @@@@@@@@@@@@@@@@@@@@@@@@@@@@    @@@@    @@@@",
"@@@@@@@@    OOOO@@@@                            OOOO@@@@    @@@@",
"@@@@@@@@    OOOO@@@@                            OOOO@@@@    @@@@",
"@@@@@@@@    OOOO@@@@                            OOOO@@@@    @@@@",
"@@@@@@@@    OOOO@@@@                            OOOO@@@@    @@@@",
"@@@@@@@@    OOOO@@@@@@@@    ....++++++++....OOOO@@@@@@@@    @@@@",
"@@@@@@@@    OOOO@@@@@@@@    ....++++++++....OOOO@@@@@@@@    @@@@",
"@@@@@@@@    OOOO@@@@@@@@    ....++++++++....OOOO@@@@@@@@    @@@@",
"@@@@@@@@    OOOO@@@@@@@@    ....++++++++....OOOO@@@@@@@@    @@@@",
"@@@@@@@@@@@@    OOOO    ....++++++++++++++++....OOOO    @@@@@@@@",
"@@@@@@@@@@@@    OOOO    ....++++++++++++++++....OOOO    @@@@@@@@",
"@@@@@@@@@@@@    OOOO    ....++++++++++++++++....OOOO    @@@@@@@@",
"@@@@@@@@@@@@    OOOO    ....++++++++++++++++....OOOO    @@@@@@@@",
"@@@@@@@@            ........++++++++++++++++....            @@@@",
"@@@@@@@@            ........++++++++++++++++....            @@@@",
"@@@@@@@@            ........++++++++++++++++....            @@@@",
"@@@@@@@@            ........++++++++++++++++....            @@@@",
"@@@@    XXXX            ........++++++++++++        XXXXoooo    ",
"@@@@    XXXX            ........++++++++++++        XXXXoooo    ",
"@@@@    XXXX            ........++++++++++++        XXXXoooo    ",
"@@@@    XXXX            ........++++++++++++        XXXXoooo    ",
"    XXXXoooo    ....            ....            ....    oooo    ",
"    XXXXoooo    ....            ....            ....    oooo    ",
"    XXXXoooo    ....            ....            ....    oooo    ",
"    XXXXoooo    ....            ....            ....    oooo    ",
"    XXXXXXXX    ....++++OOOO............OOOO++++....    XXXX    ",
"    XXXXXXXX    ....++++OOOO............OOOO++++....    XXXX    ",
"    XXXXXXXX    ....++++OOOO............OOOO++++....    XXXX    ",
"    XXXXXXXX    ....++++OOOO............OOOO++++....    XXXX    ",
"    ........        ....++++++++++++++++++++....    XXXXXXXX    ",
"    ........        ....++++++++++++++++++++....    XXXXXXXX    ",
"    ........        ....++++++++++++++++++++....    XXXXXXXX    ",
"    ........        ....++++++++++++++++++++....    XXXXXXXX    ",
"    ++++++++++++        ....@@@@....@@@@....        ........    ",
"    ++++++++++++        ....@@@@....@@@@....        ........    ",
"    ++++++++++++        ....@@@@....@@@@....        ........    ",
"    ++++++++++++        ....@@@@....@@@@....        ........    ",
"    ++++....++++    XXXXXXXX++++++++++++OOOO    ++++++++++++    ",
"    ++++....++++    XXXXXXXX++++++++++++OOOO    ++++++++++++    ",
"    ++++....++++    XXXXXXXX++++++++++++OOOO    ++++++++++++    ",
"    ++++....++++    XXXXXXXX++++++++++++OOOO    ++++++++++++    ",
"@@@@            OOOOOOOOOOOO        OOOOOOOO    ++++....++++    ",
"@@@@            OOOOOOOOOOOO        OOOOOOOO    ++++....++++    ",
"@@@@            OOOOOOOOOOOO        OOOOOOOO    ++++....++++    ",
"@@@@            OOOOOOOOOOOO        OOOOOOOO    ++++....++++    ",
"@@@@@@@@@@@@    ............                                @@@@",
"@@@@@@@@@@@@    ............                                @@@@",
"@@@@@@@@@@@@    ............                                @@@@",
"@@@@@@@@@@@@    ............                                @@@@",
"@@@@@@@@@@@@    ++++....++++    @@@@@@@@@@@@@@@@@@@@@@@@@@@@@@@@",
"@@@@@@@@@@@@    ++++....++++    @@@@@@@@@@@@@@@@@@@@@@@@@@@@@@@@",
"@@@@@@@@@@@@    ++++....++++    @@@@@@@@@@@@@@@@@@@@@@@@@@@@@@@@",
"@@@@@@@@@@@@    ++++....++++    @@@@@@@@@@@@@@@@@@@@@@@@@@@@@@@@",
"@@@@@@@@@@@@                    @@@@@@@@@@@@@@@@@@@@@@@@@@@@@@@@",
"@@@@@@@@@@@@                    @@@@@@@@@@@@@@@@@@@@@@@@@@@@@@@@",
"@@@@@@@@@@@@                    @@@@@@@@@@@@@@@@@@@@@@@@@@@@@@@@",
"@@@@@@@@@@@@                    @@@@@@@@@@@@@@@@@@@@@@@@@@@@@@@@"
};
