/* XPM */
static char *_cb1fd83a6234b859054fc9c988a926fxU71cxVYy48JJUbP[] = {
/* columns rows colors chars-per-pixel */
"64 64 5 1 ",
"  c #58232F",
". c #763372",
"X c #B9384D",
"o c #F0BA5C",
"O c #E9DDE8",
/* pixels */
"oooooooooooooooooooooooooooooooooooooooooooooooooooooooooooooooo",
"oooooooooooooooooooooooooooooooooooooooooooooooooooooooooooooooo",
"oooooooooooooooooooooooooooooooooooooooooooooooooooooooooooooooo",
"oooooooooooooooooooooooooooooooooooooooooooooooooooooooooooooooo",
"oooooooooooooooooooooooooooooo    oooooooooooooooooooooooooooooo",
"oooooooooooooooooooooooooooooo    oooooooooooooooooooooooooooooo",
"oooooooooooooooooooooooooooooo    oooooooooooooooooooooooooooooo",
"oooooooooooooooooooooooooooooo    oooooooooooooooooooooooooooooo",
"oooooooooooooooooooooo        oooo        oooooooooooooooooooooo",
"oooooooooooooooooooooo        oooo        oooooooooooooooooooooo",
"oooooooooooooooooooooo        oooo        oooooooooooooooooooooo",
"oooooooooooooooooooooo        oooo        oooooooooooooooooooooo",
"oooooooooooooooooo    XXXX    oooo    XXXX    oooooooooooooooooo",
"oooooooooooooooooo    XXXX    oooo    XXXX    oooooooooooooooooo",
"oooooooooooooooooo    XXXX    oooo    XXXX    oooooooooooooooooo",
"oooooooooooooooooo    XXXX    oooo    XXXX    oooooooooooooooooo",
"oooooooooooooo    XXXX    oooooooooooo    XXXX    oooooooooooooo",
"oooooooooooooo    XXXX    oooooooooooo    XXXX    oooooooooooooo",
"oooooooooooooo    XXXX    oooooooooooo    XXXX    oooooooooooooo",
"oooooooooooooo    XXXX    oooooooooooo    XXXX    oooooooooooooo",
"oooooo                    oooooooooooo                    oooooo",
"oooooo                    oooooooooooo                    oooooo",
"oooooo                    oooooooooooo                    oooooo",
"oooooo                    oooooooooooo                    oooooo",
"oooooo    ooooooooooooooooooooooooOOOOoooooooooooooooo    oooooo",
"oooooo    ooooooooooooooooooooooooOOOOoooooooooooooooo    oooooo",
"oooooo    ooooooooooooooooooooooooOOOOoooooooooooooooo    oooooo",
"oooooo    ooooooooooooooooooooooooOOOOoooooooooooooooo    oooooo",
"oooooooooo        ooooooooooooOOOOOOOOOOOOoooo        oooooooooo",
"oooooooooo        ooooooooooooOOOOOOOOOOOOoooo        oooooooooo",
"oooooooooo        ooooooooooooOOOOOOOOOOOOoooo        oooooooooo",
"oooooooooo        ooooooooooooOOOOOOOOOOOOoooo        oooooooooo",
"oooooooooo    ....    ooooooooooooOOOOoooo    ....    oooooooooo",
"oooooooooo    ....    ooooooooooooOOOOoooo    ....    oooooooooo",
"oooooooooo    ....    ooooooooooooOOOOoooo    ....    oooooooooo",
"oooooooooo    ....    ooooooooooooOOOOoooo    ....    oooooooooo",
"oooooooooo    XXXX    oooooooooooooooooooo    XXXX    oooooooooo",
"oooooooooo    XXXX    oooooooooooooooooooo    XXXX    oooooooooo",
"oooooooooo    XXXX    oooooooooooooooooooo    XXXX    oooooooooo",
"oooooooooo    XXXX    oooooooooooooooooooo    XXXX    oooooooooo",
"oooooooooo        oooooooooooo    oooooooooooo        oooooooooo",
"oooooooooo        oooooooooooo    oooooooooooo        oooooooooo",
"oooooooooo        oooooooooooo    oooooooooooo        oooooooooo",
"oooooooooo        oooooooooooo    oooooooooooo        oooooooooo",
"oooooooooo    oooooooooooo    ....    oooooooooooo    oooooooooo",
"oooooooooo    oooooooooooo    ....    oooooooooooo    oooooooooo",
"oooooooooo    oooooooooooo    ....    oooooooooooo    oooooooooo",
"oooooooooo    oooooooooooo    ....    oooooooooooo    oooooooooo",
"oooooo    oooooooo        ............        oooooooo    oooooo",
"oooooo    oooooooo        ............        oooooooo    oooooo",
"oooooo    oooooooo        ............        oooooooo    oooooo",
"oooooo    oooooooo        ............        oooooooo    oooooo",
"oooooo                XXXXXXXXXXXXXXXXXXXX                oooooo",
"oooooo                XXXXXXXXXXXXXXXXXXXX                oooooo",
"oooooo                XXXXXXXXXXXXXXXXXXXX                oooooo",
"oooooo                XXXXXXXXXXXXXXXXXXXX                oooooo",
"oooooooooooooooooooooo                    oooooooooooooooooooooo",
"oooooooooooooooooooooo                    oooooooooooooooooooooo",
"oooooooooooooooooooooo                    oooooooooooooooooooooo",
"oooooooooooooooooooooo                    oooooooooooooooooooooo",
"oooooooooooooooooooooooooooooooooooooooooooooooooooooooooooooooo",
"oooooooooooooooooooooooooooooooooooooooooooooooooooooooooooooooo",
"oooooooooooooooooooooooooooooooooooooooooooooooooooooooooooooooo",
"oooooooooooooooooooooooooooooooooooooooooooooooooooooooooooooooo"
};
