/* XPM */
static char *_fb40c009d9c4ee19db4f26e4ee5952dkaLXeGdHNV9WGakm[] = {
/* columns rows colors chars-per-pixel */
"64 64 6 1 ",
"  c #58232F",
". c #5B7138",
"X c #763372",
"o c #B9384D",
"O c #92AE37",
"+ c #F0BA5C",
/* pixels */
"++++++++++++++++++++            ++++        ++++++++++++++++++++",
"++++++++++++++++++++            ++++        ++++++++++++++++++++",
"++++++++++++++++++++            ++++        ++++++++++++++++++++",
"++++++++++++++++++++            ++++        ++++++++++++++++++++",
"++++++++++++++++    oooo++++oooo    oooo++++    ++++++++++++++++",
"++++++++++++++++    oooo++++oooo    oooo++++    ++++++++++++++++",
"++++++++++++++++    oooo++++oooo    oooo++++    ++++++++++++++++",
"++++++++++++++++    oooo++++oooo    oooo++++    ++++++++++++++++",
"++++++++    ++++    oooooooo++++++++++++++++    ++++    ++++++++",
"++++++++    ++++    oooooooo++++++++++++++++    ++++    ++++++++",
"++++++++    ++++    oooooooo++++++++++++++++    ++++    ++++++++",
"++++++++    ++++    oooooooo++++++++++++++++    ++++    ++++++++",
"++++    oooo        oooooooooooooooooooooooo        oooo    ++++",
"++++    oooo        oooooooooooooooooooooooo        oooo    ++++",
"++++    oooo        oooooooooooooooooooooooo        oooo    ++++",
"++++    oooo        oooooooooooooooooooooooo        oooo    ++++",
"++++    oooo++++oooo                        oooo++++oooo    ++++",
"++++    oooo++++oooo                        oooo++++oooo    ++++",
"++++    oooo++++oooo                        oooo++++oooo    ++++",
"++++    oooo++++oooo                        oooo++++oooo    ++++",
"++++++++    oooo++++++++++++++++++++++++++++++++oooo    ++++++++",
"++++++++    oooo++++++++++++++++++++++++++++++++oooo    ++++++++",
"++++++++    oooo++++++++++++++++++++++++++++++++oooo    ++++++++",
"++++++++    oooo++++++++++++++++++++++++++++++++oooo    ++++++++",
"++++                                                ++++++++++++",
"++++                                                ++++++++++++",
"++++                                                ++++++++++++",
"++++                                                ++++++++++++",
"    OOOOOOOOOOOO    ....oooo........oooo....                ++++",
"    OOOOOOOOOOOO    ....oooo........oooo....                ++++",
"    OOOOOOOOOOOO    ....oooo........oooo....                ++++",
"    OOOOOOOOOOOO    ....oooo........oooo....                ++++",
"    OOOO....OOOO....    OOOOOOOOOOOOOOOO    XXXXOOOOOOOOOOOO    ",
"    OOOO....OOOO....    OOOOOOOOOOOOOOOO    XXXXOOOOOOOOOOOO    ",
"    OOOO....OOOO....    OOOOOOOOOOOOOOOO    XXXXOOOOOOOOOOOO    ",
"    OOOO....OOOO....    OOOOOOOOOOOOOOOO    XXXXOOOOOOOOOOOO    ",
"++++            XXXX    oooo++++oooooooo    ....OOOO....OOOO    ",
"++++            XXXX    oooo++++oooooooo    ....OOOO....OOOO    ",
"++++            XXXX    oooo++++oooooooo    ....OOOO....OOOO    ",
"++++            XXXX    oooo++++oooooooo    ....OOOO....OOOO    ",
"++++++++++++    XXXXXXXX                XXXXXXXX            ++++",
"++++++++++++    XXXXXXXX                XXXXXXXX            ++++",
"++++++++++++    XXXXXXXX                XXXXXXXX            ++++",
"++++++++++++    XXXXXXXX                XXXXXXXX            ++++",
"++++++++++++++++        XXXXXXXXXXXXXXXX        ++++++++++++++++",
"++++++++++++++++        XXXXXXXXXXXXXXXX        ++++++++++++++++",
"++++++++++++++++        XXXXXXXXXXXXXXXX        ++++++++++++++++",
"++++++++++++++++        XXXXXXXXXXXXXXXX        ++++++++++++++++",
"++++++++++++++++    oooooooooooooooooooooooo    ++++++++++++++++",
"++++++++++++++++    oooooooooooooooooooooooo    ++++++++++++++++",
"++++++++++++++++    oooooooooooooooooooooooo    ++++++++++++++++",
"++++++++++++++++    oooooooooooooooooooooooo    ++++++++++++++++",
"++++++++++++++++    oooooooo        oooooooo    ++++++++++++++++",
"++++++++++++++++    oooooooo        oooooooo    ++++++++++++++++",
"++++++++++++++++    oooooooo        oooooooo    ++++++++++++++++",
"++++++++++++++++    oooooooo        oooooooo    ++++++++++++++++",
"++++++++++++++++    ........        ........    ++++++++++++++++",
"++++++++++++++++    ........        ........    ++++++++++++++++",
"++++++++++++++++    ........        ........    ++++++++++++++++",
"++++++++++++++++    ........        ........    ++++++++++++++++",
"++++++++++++    OOOOOOOO....        ....OOOOOOOO    ++++++++++++",
"++++++++++++    OOOOOOOO....        ....OOOOOOOO    ++++++++++++",
"++++++++++++    OOOOOOOO....        ....OOOOOOOO    ++++++++++++",
"++++++++++++    OOOOOOOO....        ....OOOOOOOO    ++++++++++++"
};
